<?xml version="1.0" standalone="no"?>
<!DOCTYPE svg PUBLIC "-//W3C//DTD SVG 20010904//EN"
 "http://www.w3.org/TR/2001/REC-SVG-20010904/DTD/svg10.dtd">
<svg version="1.0" xmlns="http://www.w3.org/2000/svg"
 width="200.000000pt" height="200.000000pt" viewBox="0 0 200.000000 200.000000"
 preserveAspectRatio="xMidYMid meet">

<g transform="translate(0.000000,200.000000) scale(0.100000,-0.100000)"
fill="#000000" stroke="none">
<path d="M864 1231 c10 -11 15 -25 11 -30 -3 -6 -2 -11 3 -11 13 0 19 -39 11
-75 -6 -27 -7 -26 -6 11 0 44 -8 64 -26 64 -8 0 -8 -3 0 -11 6 -6 9 -18 6 -26
-4 -11 -9 -8 -22 9 -9 13 -16 26 -16 30 0 21 -16 15 -36 -13 -18 -26 -19 -31
-6 -26 9 3 19 1 23 -5 4 -7 3 -8 -4 -4 -8 5 -12 -2 -12 -19 0 -14 4 -24 8 -21
17 10 4 -101 -17 -148 -11 -27 -21 -51 -21 -54 0 -8 26 17 111 107 34 36 66
113 40 97 -6 -4 -11 0 -11 9 0 9 4 14 9 11 12 -8 34 21 26 34 -4 6 -3 10 2 9
23 -4 83 2 83 9 0 4 -19 7 -42 7 -38 0 -43 2 -40 22 3 21 -10 36 -35 39 -7 1
-13 -3 -13 -9 0 -8 -4 -7 -12 1 -20 20 -32 13 -14 -7z m64 -16 c-3 -3 -9 2
-12 12 -6 14 -5 15 5 6 7 -7 10 -15 7 -18z m-89 -94 l-1 -26 -8 28 c-5 16 -14
36 -22 45 -9 13 -7 12 10 -2 13 -11 22 -30 21 -45z m28 -43 c-2 -13 -4 -5 -4
17 -1 22 1 32 4 23 2 -10 2 -28 0 -40z m-20 -30 c-3 -7 -5 -2 -5 12 0 14 2 19
5 13 2 -7 2 -19 0 -25z"/>
<path d="M1069 1233 c-6 -7 -9 -20 -5 -28 5 -13 -5 -20 -26 -16 -5 0 -8 -3 -8
-9 0 -9 15 -14 33 -11 5 1 6 -3 2 -9 -8 -13 14 -42 26 -34 5 3 9 -5 9 -18 0
-19 -2 -20 -11 -8 -7 11 -8 6 -3 -20 6 -33 51 -87 137 -167 22 -21 22 -16 -5
43 -21 47 -31 144 -16 144 5 0 8 12 8 26 0 16 -4 23 -12 18 -7 -4 -8 -3 -4 4
4 6 14 8 23 5 13 -5 12 0 -6 26 -20 28 -36 34 -36 13 0 -4 -7 -17 -16 -30 -13
-17 -18 -20 -22 -9 -3 8 0 20 6 26 8 8 8 11 0 11 -18 0 -26 -20 -26 -64 1 -37
0 -38 -6 -11 -8 36 -2 75 11 75 5 0 6 5 3 11 -4 5 1 19 11 30 18 20 6 27 -14
7 -7 -7 -12 -8 -12 -2 0 15 -28 13 -41 -3z m14 -8 c-3 -9 -8 -14 -10 -11 -3 3
-2 9 2 15 9 16 15 13 8 -4z m108 -59 c-7 -8 -16 -27 -21 -43 -8 -27 -8 -27 -9
-4 -1 14 6 33 16 43 19 21 31 25 14 4z m-54 -88 c-2 -13 -4 -5 -4 17 -1 22 1
32 4 23 2 -10 2 -28 0 -40z m20 -30 c-3 -8 -6 -5 -6 6 -1 11 2 17 5 13 3 -3 4
-12 1 -19z"/>
<path d="M805 1220 c-16 -11 -25 -20 -18 -20 6 0 15 5 18 10 5 8 11 7 21 -1 7
-6 12 -15 9 -19 -3 -4 3 -14 13 -21 14 -11 15 -11 5 0 -14 16 -6 44 11 34 6
-3 2 3 -8 15 -11 12 -20 22 -20 22 -1 0 -14 -9 -31 -20z"/>
<path d="M1144 1218 c-11 -12 -14 -18 -8 -15 17 10 25 -18 11 -34 -10 -10 -8
-10 6 0 9 8 15 16 12 19 -3 3 0 11 6 19 9 10 15 11 26 2 7 -7 15 -10 18 -7 2
2 -8 12 -24 21 -27 16 -29 16 -47 -5z"/>
<path d="M952 1138 c-17 -17 -15 -90 3 -114 13 -17 14 -12 15 54 0 39 -1 72
-3 72 -2 0 -8 -5 -15 -12z"/>
<path d="M1030 1079 c0 -84 19 -85 27 -2 4 37 1 52 -11 62 -14 12 -16 6 -16
-60z"/>
<path d="M889 953 c-13 -16 -12 -17 4 -4 9 7 17 15 17 17 0 8 -8 3 -21 -13z"/>
<path d="M1090 966 c0 -2 8 -10 18 -17 15 -13 16 -12 3 4 -13 16 -21 21 -21
13z"/>
<path d="M687 802 c-21 -23 -22 -52 -2 -78 13 -17 13 -16 3 12 -10 27 -9 36 5
58 20 30 17 34 -6 8z"/>
<path d="M813 765 c0 -33 2 -45 4 -27 2 18 2 45 0 60 -2 15 -4 0 -4 -33z"/>
<path d="M900 763 c0 -31 2 -54 5 -52 8 9 11 109 3 109 -4 0 -8 -25 -8 -57z"/>
<path d="M983 765 c0 -33 2 -45 4 -27 2 18 2 45 0 60 -2 15 -4 0 -4 -33z"/>
<path d="M1035 765 c0 -30 3 -55 8 -55 4 0 7 25 7 55 0 30 -3 55 -7 55 -5 0
-8 -25 -8 -55z"/>
<path d="M1307 796 c3 -14 -5 -34 -22 -54 -15 -18 -23 -32 -18 -32 12 0 53 64
53 83 0 8 -4 18 -9 21 -4 3 -6 -5 -4 -18z"/>
<path d="M1130 807 c0 -2 20 -27 45 -53 25 -27 44 -42 44 -34 -1 13 -89 100
-89 87z"/>
<path d="M765 736 c0 -13 3 -22 8 -19 4 2 7 13 7 24 0 10 -3 19 -7 19 -5 0 -8
-11 -8 -24z"/>
</g>
</svg>
